HIERARCHY
ROOT root     
{
	OFFSET 0.0000 0.0000 0.0000
	CHANNELS 6 Xposition Yposition Zposition Zrotation Yrotation Xrotation
	JOINT pelvis   
	{
		OFFSET 0.0000 0.0000 0.0000
		CHANNELS 3 Zrotation Yrotation Xrotation
		JOINT thorax   
		{
			OFFSET 0.0000 23.0750 -5.0000
			CHANNELS 3 Zrotation Yrotation Xrotation
			JOINT rclavicle
			{
				OFFSET 0.0000 28.0009 0.0000
				CHANNELS 3 Zrotation Yrotation Xrotation
				JOINT rhumerus 
				{
					OFFSET -18.5725 5.5939 0.0000
					CHANNELS 3 Zrotation Yrotation Xrotation
					JOINT rradius  
					{
						OFFSET -24.8459 0.0000 0.0000
						CHANNELS 3 Zrotation Yrotation Xrotation
						JOINT rhand    
						{
							OFFSET -24.5477 0.0000 0.0000
							CHANNELS 3 Zrotation Yrotation Xrotation
							End Site
							{
								OFFSET -8.1826 0.0000 0.0000
							}
						}
					}
				}
			}
			JOINT lclavicle
			{
				OFFSET 0.0000 28.0009 0.0000
				CHANNELS 3 Zrotation Yrotation Xrotation
				JOINT lhumerus 
				{
					OFFSET 18.5725 5.5939 0.0000
					CHANNELS 3 Zrotation Yrotation Xrotation
					JOINT lradius  
					{
						OFFSET 24.8459 0.0000 0.0000
						CHANNELS 3 Zrotation Yrotation Xrotation
						JOINT lhand    
						{
							OFFSET 24.5477 0.0000 0.0000
							CHANNELS 3 Zrotation Yrotation Xrotation
							End Site
							{
								OFFSET 8.1826 0.0000 0.0000
							}
						}
					}
				}
			}
			JOINT head     
			{
				OFFSET 0.0000 35.2030 0.0000
				CHANNELS 3 Zrotation Yrotation Xrotation
				End Site
				{
					OFFSET 0.0000 11.7343 0.0000
				}
			}
		}
		JOINT rfemur   
		{
			OFFSET -8.2817 0.0000 0.0000
			CHANNELS 3 Zrotation Yrotation Xrotation
			JOINT rtibia   
			{
				OFFSET 0.0000 -43.3627 0.0000
				CHANNELS 3 Zrotation Yrotation Xrotation
				JOINT rfoot    
				{
					OFFSET 0.0000 -38.2947 0.0000
					CHANNELS 3 Zrotation Yrotation Xrotation
					JOINT rtoes    
					{
						OFFSET 0.0000 0.0000 16.6054
						CHANNELS 3 Zrotation Yrotation Xrotation
						End Site
						{
							OFFSET 0.0000 0.0000 5.5351
						}
					}
				}
			}
		}
		JOINT lfemur   
		{
			OFFSET 8.2817 0.0000 0.0000
			CHANNELS 3 Zrotation Yrotation Xrotation
			JOINT ltibia   
			{
				OFFSET 0.0000 -43.3627 0.0000
				CHANNELS 3 Zrotation Yrotation Xrotation
				JOINT lfoot    
				{
					OFFSET 0.0000 -38.2947 0.0000
					CHANNELS 3 Zrotation Yrotation Xrotation
					JOINT ltoes    
					{
						OFFSET 0.0000 0.0000 16.6054
						CHANNELS 3 Zrotation Yrotation Xrotation
						End Site
						{
							OFFSET 0.0000 0.0000 5.5351
						}
					}
				}
			}
		}
	}
}
MOTION
Frames: 23
Frame Time: .0333333
81.194 79.807 14.455 61.2845 -86.6675 -14.594 0 -0 0 -2.14557 -7.73036 7.43793 16.8943 -5.62402 -5.63111e-06 65.0759 29.8445 3.94534 -0 37.0586 -0 -12.764 18.6733 -2.10711 -8.86425 2.93139 -4.91285e-06 -58.1313 -17.619 2.79237 0 -58.2834 0 12.3946 -6.11276 -0.664381 1.73481 -3.32353 -29.5937 2.7331 -12.0096 -59.083 -0 -0 51.3971 -1.21563e-06 -6.65304 -11.4815 1.33001 9.38356e-06 -73.1025 -4.27727 5.50888 -59.813 -0 -0 50.4558 6.88329e-06 12.7394 -12.5341 -2.80885 5.68695e-05 -60.2031 
79.954 81.003 14.391 60.9908 -86.793 -15.4976 0 -0 0 -2.26373 -7.64075 7.49261 16.2305 -5.67037 -1.22896e-06 65.0318 30.8453 5.61967 2.64896e-07 39.5504 7.36781e-07 -13.1289 18.2583 -2.1188 -8.18941 2.64879 1.4945e-06 -57.929 -18.0952 3.3704 0 -61.5197 0 12.3626 -5.87372 -0.63668 1.70742 -3.46194 -28.0809 2.70645 -12.4988 -56.5932 -0 -0 49.5713 -1.18265e-06 -5.62357 -7.39469 0.726097 3.64802e-06 -76.9453 -3.94648 5.81425 -57.1448 -0 -0 48.4527 -1.30479e-05 12.4154 -8.86356 -1.94271 2.62953e-06 -63.8517 
78.734 82.239 14.32 60.5723 -86.9181 -16.1977 0 -0 0 -2.36156 -7.53467 7.63876 15.6374 -5.7256 3.50341e-05 64.7048 31.8105 7.20137 -0 42.2101 -0 -13.4811 17.7515 -2.11476 -7.58407 2.38752 -2.64459e-06 -57.5561 -18.539 3.80248 5.39781e-07 -64.8922 -8.49036e-07 12.2923 -5.59275 -0.602686 1.71451 -3.56481 -26.7178 2.71655 -13.0161 -54.4214 -0 -0 48.052 -2.36011e-06 -4.57951 -2.94586 0.235903 2.72086e-06 -80.5285 -3.59488 6.14006 -54.7697 -0 -0 46.7412 -2.97715e-05 12.1224 -4.75914 -1.0209 -1.39779e-06 -67.4312 
77.548 83.503 14.243 60.0471 -87.0877 -16.7073 0 -0 0 -2.43615 -7.42176 7.8539 15.1146 -5.78594 5.8384e-06 64.0873 32.7496 8.62988 0 45.0519 0 -13.8069 17.1952 -2.09739 -7.05046 2.15968 2.16893e-06 -56.9959 -18.9561 4.07297 0 -68.4117 0 12.1822 -5.28338 -0.564189 1.75836 -3.62483 -25.5364 2.77041 -13.557 -52.6344 -0 -0 46.8858 8.36389e-07 -3.55056 1.7115 -0.1062 9.30483e-09 -83.4909 -3.24414 6.4977 -52.76 -0 -0 45.3783 2.08074e-06 11.847 -0.331193 -0.0694996 -4.1363e-07 -70.5322 
76.413 84.784 14.159 59.5058 -87.2876 -17.0804 0 -0 0 -2.49393 -7.30616 8.11521 14.6545 -5.85173 -5.14264e-06 63.1876 33.669 9.84207 -0 48.0808 -0 -14.0974 16.6332 -2.07097 -6.57867 1.97994 -3.69658e-06 -56.2503 -19.3629 4.17243 0 -72.0622 0 12.0391 -4.96454 -0.523795 1.84572 -3.64022 -24.5632 2.86965 -14.1133 -51.2862 -0 -0 46.0982 -4.02245e-06 -2.57463 6.39618 -0.286992 -5.88313e-07 -85.6215 -2.91974 6.89663 -51.1699 -0 -0 44.3877 1.2394e-05 11.5809 4.2742 0.874991 2.23488e-06 -72.7654 
75.34 86.066 14.071 59.1674 -87.4988 -17.5106 0 -0 0 -2.54344 -7.19297 8.40806 14.2432 -5.92598 2.34717e-05 62.027 34.5775 10.7849 0 51.2891 0 -14.3576 16.1034 -2.04148 -6.15554 1.86065 -1.5538e-06 -55.3217 -19.7786 4.09005 -1.37596e-06 -75.8329 1.07178e-06 11.8811 -4.65075 -0.484193 1.98133 -3.61001 -23.8118 3.00866 -14.6665 -50.3979 -0 -0 45.6891 1.98631e-06 -1.7058 10.9086 -0.322898 2.99989e-06 -86.867 -2.64556 7.34145 -50.0259 -0 -0 43.7743 1.78207e-06 11.3167 8.87902 1.76913 -3.19573e-05 -73.8306 
74.341 87.334 13.98 59.1557 -87.7052 -18.0883 0 -0 0 -2.59199 -7.07875 8.68775 13.8552 -6.00026 1.49888e-05 60.6381 35.4383 11.3859 0 54.6934 0 -14.5959 15.6248 -2.0133 -5.73641 1.80199 -9.61386e-07 -54.2645 -20.209 3.81354 1.52504e-06 -79.6696 -1.82813e-06 11.7232 -4.38067 -0.44999 2.1719 -3.54427 -23.2773 3.19042 -15.1986 -49.9982 -0 -0 45.6521 -5.60601e-06 -0.991998 15.0577 -0.257703 -2.77495e-06 -87.1983 -2.44051 7.82368 -49.3596 -0 -0 43.5268 -9.98304e-07 11.0638 13.2982 2.57533 -6.88019e-05 -73.64 
73.419 88.573 13.886 59.5588 -87.9261 -18.9237 0 -0 0 -2.63949 -6.9774 8.96364 13.4642 -6.08674 4.25248e-06 59.0652 36.2749 11.6408 0 58.2561 0 -14.8418 15.2111 -1.99272 -5.32049 1.8205 -3.83841e-07 -53.0706 -20.6733 3.33232 -2.00732e-06 -83.5601 1.79353e-06 11.6095 -4.14909 -0.422007 2.41092 -3.43779 -22.957 3.4062 -15.6849 -50.0491 -0 -0 45.948 2.00002e-06 -0.5031 18.6704 -0.161098 1.72987e-07 -86.8424 -2.31732 8.33455 -49.141 -0 -0 43.607 8.98407e-07 10.8416 17.338 3.26644 6.97381e-05 -72.2196 
72.578 89.77 13.793 60.4522 -88.1324 -20.0769 0 -0 0 -2.68782 -6.89105 9.21352 13.0408 -6.18553 -9.24792e-06 57.3481 37.063 11.5253 4.67617e-07 61.9681 7.78736e-07 -15.1273 14.8486 -1.98256 -4.87661 1.9163 -1.44802e-06 -51.7796 -21.1765 2.63702 0 -87.4676 0 11.572 -3.97249 -0.402717 2.69571 -3.29964 -22.8235 3.65514 -16.1096 -50.5305 -0 -0 46.5321 5.01704e-07 -0.280495 21.6289 -0.103399 -2.24038e-07 -86.0308 -2.2874 8.85576 -49.3534 -0 -0 43.9734 -6.42279e-05 10.6789 20.8413 3.83825 -3.64218e-05 -69.8465 
71.819 90.911 13.7 61.8553 -88.3203 -21.5791 0 -0 0 -2.73563 -6.8254 9.42947 12.5597 -6.30042 -2.47901e-05 55.5212 37.786 11.0358 -0 65.8125 -0 -15.4863 14.5114 -1.98355 -4.38609 2.08962 -3.94918e-07 -50.4179 -21.7202 1.71829 180 -88.6399 180 11.6469 -3.85372 -0.393201 3.01778 -3.13708 -22.8436 3.93229 -16.4605 -51.3979 -0 -0 47.3499 -3.35128e-07 -0.342501 23.864 -0.138598 1.85283e-07 -85.0351 -2.35741 9.36614 -49.9616 -0 -0 44.575 0.000105905 10.6062 23.7057 4.30527 1.98885e-05 -66.9311 
71.137 91.987 13.61 63.5744 -88.4724 -23.2442 0 -0 0 -2.77896 -6.78656 9.60739 12.0031 -6.43293 -2.82646e-06 53.6084 38.4248 10.1757 -1.01237e-06 69.7607 -7.05734e-07 -15.9482 14.1692 -1.99482 -3.83897 2.33696 1.73359e-06 -49.0033 -22.2999 0.565732 -180 -84.8575 180 11.8641 -3.7897 -0.393878 3.36511 -2.95893 -22.9693 4.23302 -16.7365 -52.6 -0 -0 48.3442 5.83532e-07 -0.667701 25.3536 -0.2859 5.72752e-06 -83.9284 -2.52915 9.84424 -50.9226 -0 -0 45.3554 4.88998e-05 10.6479 25.8768 4.69096 1.07831e-05 -63.8954 
70.526 92.99 13.522 65.2863 -88.5785 -24.7708 0 -0 0 -2.81423 -6.77932 9.75062 11.365 -6.58265 -5.55003e-06 51.6172 38.9611 8.95227 9.18141e-07 73.7914 1.22304e-06 -16.5372 13.7989 -2.01482 -3.23499 2.65179 -1.49901e-06 -47.545 -22.9087 -0.830787 180 -81.1426 180 12.2451 -3.77249 -0.404811 3.72368 -2.77447 -23.1472 4.55212 -16.9459 -54.0788 -0 -0 49.4414 3.93315e-06 -1.20768 26.1334 -0.532008 2.62048e-06 -82.9511 -2.79926 10.2678 -52.1818 -0 -0 46.2615 -4.65729e-05 10.8173 27.3571 5.01798 3.0031e-05 -61.1225 
69.979 93.916 13.438 66.4069 -88.6468 -25.6026 0 -0 0 -2.83526 -6.80723 9.86596 10.6489 -6.74622 -7.65732e-07 49.5454 39.3781 7.3742 9.0245e-07 77.865 1.1171e-06 -17.2664 13.3865 -2.04153 -2.58434 3.02382 4.29854e-07 -46.0374 -23.5362 -2.4843 -180 -77.5497 180 12.7935 -3.79048 -0.425089 4.07668 -2.59327 -23.3229 4.8828 -17.1012 -55.7734 -0 -0 50.5796 1.96183e-05 -1.88407 26.2586 -0.833799 6.18199e-06 -82.1029 -3.15916 10.6181 -53.6869 -0 -0 47.2385 9.65866e-05 11.1087 28.1798 5.29748 3.15677e-05 -58.8338 
69.487 94.764 13.357 66.5937 -88.6791 -25.4245 0 -0 0 -2.83773 -6.86932 9.9651 9.872 -6.91646 1.13705e-05 47.3745 39.6567 5.44589 -1.6263e-06 81.9439 -1.41233e-06 -18.1391 12.9399 -2.07421 -1.90695 3.43954 1.02367e-06 -44.4737 -24.1681 -4.40873 180 -74.1152 -180 13.5034 -3.83036 -0.453587 4.40728 -2.42476 -23.4406 5.21795 -17.2174 -57.6238 -0 -0 51.6923 -2.35481e-05 -2.61181 25.8282 -1.13851 7.00853e-06 -81.4082 -3.59564 10.8811 -55.381 -0 -0 48.2369 -4.31385e-05 11.501 28.4089 5.5292 -6.2418e-06 -57.1523 
69.039 95.535 13.279 65.5641 -88.6635 -23.9732 0 -0 0 -2.81654 -6.96159 10.0618 9.05968 -7.08454 4.91053e-06 45.0833 39.7814 3.17461 1.9331e-06 85.9737 2.51662e-06 -19.1575 12.4821 -2.11456 -1.22983 3.88414 -1.27336e-06 -42.8328 -24.7891 -6.62207 180 -70.8499 180 14.3539 -3.87798 -0.48848 4.69812 -2.27723 -23.4506 5.5505 -17.3076 -59.5764 -0 -0 52.726 9.19241e-06 -3.30929 24.9529 -1.39741 -5.29505e-06 -80.8532 -4.09236 11.0501 -57.2125 -0 -0 49.2093 0.000111282 11.9578 28.1313 5.70238 4.17721e-05 -56.0522 
68.625 96.23 13.205 63.5482 -88.5776 -21.4877 0 -0 0 -2.76793 -7.07551 10.17 8.24339 -7.24083 -2.35198e-06 42.6504 39.7382 0.569801 2.89743e-05 89.8069 2.90206e-05 -20.3136 12.054 -2.16718 -0.582797 4.34114 -4.43067e-07 -41.0998 -25.3817 -9.13423 -180 -67.7892 180 15.3119 -3.92046 -0.527193 4.93389 -2.1581 -23.3085 5.87383 -17.383 -61.5823 -0 -0 53.6322 2.26399e-05 -3.91194 23.7694 -1.57875 3.76122e-05 -80.406 -4.63049 11.1236 -59.1295 -0 -0 50.113 -9.90789e-05 12.4351 27.4552 5.80524 4.99688e-05 -55.4632 
68.235 96.854 13.133 60.8795 -88.4773 -18.3479 0 -0 0 -2.69073 -7.19862 10.3036 7.45692 -7.37658 -7.04902e-06 40.0606 39.5172 -2.35026 -180 86.3246 -180 -21.5974 11.7032 -2.23973 0.00520009 4.79474 9.0387e-11 -39.2618 -25.9313 -11.952 -180 -64.9519 180 16.337 -3.94669 -0.566703 5.10137 -2.07199 -22.988 6.18126 -17.4465 -63.604 -0 -0 54.3768 1.72303e-05 -4.37888 22.42 -1.67287 2.44544e-05 -80.0807 -5.1933 11.1089 -61.0935 -0 -0 50.9116 -5.28919e-05 12.8924 26.5043 5.83241 -3.8489e-05 -55.2687 
67.861 97.412 13.062 58.0784 -88.3078 -15.0549 0 -0 0 -2.58614 -7.31629 10.4731 6.73194 -7.48597 1.77788e-06 37.3192 39.11 -5.55676 -180 82.748 -180 -23.0004 11.4741 -2.34202 0.510796 5.23149 6.89039e-08 -37.3181 -26.4162 -15.0682 -180 -62.3618 180 17.3839 -3.94915 -0.604011 5.19077 -2.02267 -22.4692 6.46972 -17.5023 -65.6148 -0 -0 54.9387 1.61877e-05 -4.68836 21.0372 -1.68629 3.5375e-05 -79.7341 -5.76661 11.0182 -63.0671 -0 -0 51.5732 0.000123364 13.2931 25.4134 5.78936 9.63486e-06 -55.3311 
67.494 97.91 12.993 55.4925 -88.1263 -11.9953 0 -0 0 -2.45753 -7.41394 10.6885 6.09249 -7.56684 2.55635e-06 34.4475 38.5122 -9.00639 -180 79.4464 -180 -24.5023 11.3932 -2.48171 0.917993 5.64188 -3.61644e-07 -35.2816 -26.8193 -18.4601 180 -60.0321 -180 18.4085 -3.92414 -0.636115 5.19457 -2.01064 -21.7508 6.73278 -17.5432 -67.5912 -0 -0 55.3018 -1.15068e-05 -4.84903 19.7575 -1.64263 -3.40005e-05 -79.5113 -6.33819 10.8659 -65.0202 -0 -0 52.074 -7.21852e-05 13.6108 24.3168 5.69392 4.28206e-05 -55.536 
67.125 98.351 12.925 53.3354 -87.9652 -9.39831 0 -0 0 -2.31242 -7.47598 10.9543 5.55421 -7.62186 5.85018e-06 31.4843 37.726 -12.6418 -180 76.4387 -180 -26.0802 11.4683 -2.66454 1.2227 6.01914 -6.69709e-07 -33.1856 -27.121 -22.0796 -180 -57.9793 180 19.3722 -3.87075 -0.660891 5.11155 -2.03518 -20.8404 6.96537 -17.5642 -69.5147 -0 -0 55.4653 -1.38454e-05 -4.87286 18.6713 -1.56342 -1.91262e-05 -79.229 -6.90252 10.6691 -66.9297 -0 -0 52.3923 2.65382e-05 13.8336 23.334 5.57076 -1.15199e-05 -55.7657 
66.747 98.738 12.858 51.7394 -87.8148 -7.39363 0 -0 0 -2.15968 -7.49115 11.2753 5.09081 -7.66825 8.48914e-07 28.5301 36.7344 -16.4803 -180 73.5025 -180 -27.2088 11.0652 -2.68575 1.43108 6.36624 -3.92258e-08 -31.0805 -27.3064 -25.8545 180 -56.2035 180 20.2471 -3.79393 -0.677596 4.94361 -2.09204 -19.7633 7.16039 -17.5546 -71.3712 -0 -0 55.4287 1.40885e-05 -4.78882 17.8526 -1.4713 1.46423e-05 -79.002 -7.45669 10.4463 -68.7697 -0 -0 52.5165 9.9531e-05 13.9559 22.5605 5.44618 -1.4301e-05 -55.978 
66.352 99.074 12.793 50.7725 -87.6587 -6.02924 0 -0 0 -2.00935 -7.45256 11.648 4.75774 -7.6928 9.92115e-07 25.5767 35.5912 -20.2593 -180 71.1541 -180 -28.8768 11.4173 -2.94875 1.55597 6.68523 -1.47702e-06 -29.0268 -27.3568 -29.6924 180 -54.7047 180 21.0158 -3.69907 -0.686399 4.69571 -2.17548 -18.5496 7.3108 -17.5062 -73.1463 -0 -0 55.1988 2.14196e-06 -4.6215 17.3356 -1.3798 8.8098e-07 -78.8285 -7.99976 10.2102 -70.5206 -0 -0 52.4361 -9.1664e-05 13.9801 22.0541 5.34063 -3.62258e-05 -56.1564 
65.936 99.357 12.73 50.4596 -87.5497 -5.35894 0 -0 0 -1.87454 -7.35633 12.0697 4.50886 -7.7212 7.00312e-06 22.7425 34.2984 -23.9792 -180 69.1225 -180 -30.5253 11.8036 -3.23136 1.62122 6.98742 1.68887e-06 -27.1013 -27.2677 -33.4842 180 -53.4618 180 21.6735 -3.5942 -0.688201 4.38027 -2.27822 -17.2411 7.40688 -17.4112 -74.8255 -0 -0 54.7861 3.56791e-06 -4.38997 17.111 -1.29402 4.76059e-06 -78.7339 -8.53285 9.9729 -72.1626 -0 -0 52.1449 0.000112651 13.9125 21.8351 5.26364 1.08999e-05 -56.3136 
